<svg width="25" height="24" viewBox="0 0 25 24" fill="none" xmlns="http://www.w3.org/2000/svg">
<path d="M22.25 0.75H2.75C2.35218 0.75 1.97065 0.908033 1.68934 1.18934C1.40803 1.47065 1.25 1.85218 1.25 2.25V21.75C1.25 22.1478 1.40803 22.5293 1.68934 22.8106C1.97065 23.092 2.35218 23.25 2.75 23.25H22.25C22.6478 23.25 23.0293 23.092 23.3106 22.8106C23.592 22.5293 23.75 22.1478 23.75 21.75V2.25C23.75 1.85218 23.592 1.47065 23.3106 1.18934C23.0293 0.908033 22.6478 0.75 22.25 0.75ZM7.91525 19.9455H4.5305V9.1875H7.91525V19.9455ZM6.2225 7.71075C5.83338 7.70955 5.45333 7.59307 5.13036 7.37604C4.80739 7.159 4.55598 6.85111 4.4079 6.49126C4.2598 6.13142 4.22167 5.73575 4.29832 5.35425C4.37496 4.97275 4.56293 4.62251 4.8385 4.34777C5.11407 4.07304 5.46488 3.88613 5.84661 3.81065C6.22835 3.73517 6.62389 3.77451 6.98328 3.92369C7.34268 4.07287 7.6498 4.32522 7.86587 4.64885C8.0819 4.97248 8.19725 5.35288 8.19725 5.742C8.19732 6.00107 8.14633 6.25762 8.04703 6.49691C7.94774 6.73621 7.80219 6.95355 7.61872 7.13646C7.43524 7.31938 7.21747 7.46426 6.97787 7.56285C6.73827 7.6614 6.48157 7.71165 6.2225 7.71075ZM20.4657 19.9455H17.15V14.742C17.15 13.4768 17.15 11.9295 15.3875 11.9295C13.625 11.9295 13.4127 13.266 13.4127 14.6715V20.016H10.1V9.1875H13.202V10.6642H13.2725C13.5925 10.1111 14.0567 9.65535 14.6156 9.34568C15.1746 9.03608 15.8071 8.88412 16.4457 8.90625C19.8305 8.90625 20.465 11.1562 20.465 14.0392L20.4657 19.9455Z" fill="white"/>
</svg>
