<svg width="25" height="24" viewBox="0 0 25 24" fill="none" xmlns="http://www.w3.org/2000/svg">
<path d="M22.25 0.75H2.75C2.35218 0.75 1.97065 0.908033 1.68934 1.18934C1.40803 1.47065 1.25 1.85218 1.25 2.25V21.75C1.25 22.1478 1.40803 22.5293 1.68934 22.8106C1.97065 23.092 2.35218 23.25 2.75 23.25H22.25C22.6478 23.25 23.0293 23.092 23.3106 22.8106C23.592 22.5293 23.75 22.1478 23.75 21.75V2.25C23.75 1.85218 23.592 1.47065 23.3106 1.18934C23.0293 0.908033 22.6478 0.75 22.25 0.75ZM19.9422 6.081L18.7355 7.2375C18.6843 7.2764 18.6448 7.32854 18.6211 7.3883C18.5975 7.44805 18.5906 7.51312 18.6012 7.5765V16.0778C18.5905 16.1411 18.5973 16.2062 18.621 16.266C18.6447 16.3258 18.6843 16.3779 18.7355 16.4167L19.9137 17.574V17.8275H13.9888V17.574L15.209 16.3875C15.3298 16.2675 15.3298 16.2323 15.3298 16.0485V9.17775L11.9352 17.8027H11.477L7.52225 9.17775V14.9528C7.50628 15.0726 7.5177 15.1946 7.55562 15.3094C7.59356 15.4242 7.65702 15.529 7.74125 15.6157L9.329 17.541V17.7952H4.829V17.541L6.41675 15.6157C6.50027 15.5289 6.56229 15.4237 6.59785 15.3085C6.63339 15.1934 6.64149 15.0716 6.6215 14.9528V8.27325C6.63041 8.18197 6.61774 8.08995 6.58453 8.00445C6.5513 7.91902 6.49846 7.84253 6.43025 7.78125L5.01725 6.081V5.8275H9.3995L12.7865 13.2525L15.7648 5.8275H19.9415L19.9422 6.081Z" fill="white"/>
</svg>
