<svg width="152" height="27" viewBox="0 0 152 27" fill="none" xmlns="http://www.w3.org/2000/svg">
<path d="M0.285156 26.2117V0.991577H9.25C12.3555 0.991577 14.7109 1.58051 16.3164 2.75837C17.9219 3.92469 18.7246 5.63952 18.7246 7.90286C18.7246 9.13846 18.4023 10.2297 17.7578 11.1766C17.1133 12.112 16.2168 12.7991 15.0684 13.2379C16.3809 13.5612 17.4121 14.2137 18.1621 15.1952C18.9238 16.1768 19.3047 17.3777 19.3047 18.7981C19.3047 21.2231 18.5195 23.0592 16.9492 24.3063C15.3789 25.5535 13.1406 26.1886 10.2344 26.2117H0.285156ZM5.55859 15.2299V22.0372H10.0762C11.3184 22.0372 12.2852 21.7485 12.9766 21.1711C13.6797 20.5822 14.0312 19.7739 14.0312 18.7461C14.0312 16.4366 12.8184 15.2645 10.3926 15.2299H5.55859ZM5.55859 11.5577H9.46094C12.1211 11.5115 13.4512 10.4664 13.4512 8.4225C13.4512 7.27929 13.1113 6.4594 12.4316 5.96285C11.7637 5.45475 10.7031 5.2007 9.25 5.2007H5.55859V11.5577Z" fill="#F13C6E"/>
<path d="M42.2758 15.2818H32.1508V22.0372H44.0336V26.2117H26.8773V0.991577H43.9984V5.2007H32.1508V11.2113H42.2758V15.2818Z" fill="#F13C6E"/>
<path d="M65.1766 21.0152H55.9305L54.1727 26.2117H48.5652L58.0926 0.991577H62.9793L72.5594 26.2117H66.952L65.1766 21.0152ZM57.3543 16.8061H63.7527L60.5359 7.36589L57.3543 16.8061Z" fill="#F13C6E"/>
<path d="M97.6047 0.991577V17.6029C97.6047 20.3628 96.7258 22.5453 94.968 24.1504C93.2219 25.7556 90.8313 26.5581 87.7961 26.5581C84.8078 26.5581 82.4348 25.7787 80.677 24.2197C78.9191 22.6608 78.0227 20.5187 77.9875 17.7934V0.991577H83.2609V17.6375C83.2609 19.2889 83.6594 20.4956 84.4563 21.2577C85.2648 22.0083 86.3781 22.3836 87.7961 22.3836C90.7609 22.3836 92.2668 20.8478 92.3137 17.7761V0.991577H97.6047Z" fill="#F13C6E"/>
<path d="M124.795 5.2007H116.955V26.2117H111.681V5.2007H103.947V0.991577H124.795V5.2007Z" fill="#F13C6E"/>
<path d="M140.523 12.3545L145.85 0.991577H151.615L143.213 17.0659V26.2117H137.852V17.0659L129.449 0.991577H135.232L140.523 12.3545Z" fill="#F13C6E"/>
</svg>
