<svg width="80" height="79" viewBox="0 0 80 79" fill="none" xmlns="http://www.w3.org/2000/svg">
<g clip-path="url(#clip0_6_21)">
<path d="M57.2204 25.0028L46.6873 35.3822L50.7656 39.401L61.2987 29.0216L57.2204 25.0028Z" fill="#F13C6E"/>
<path d="M35.9094 46.0247L25.3762 56.4041L29.4545 60.4228L39.9877 50.0434L35.9094 46.0247Z" fill="#F13C6E"/>
<path d="M50.5173 18.4329L39.9842 28.8123L44.0625 32.8311L54.5956 22.4517L50.5173 18.4329Z" fill="#F13C6E"/>
<path d="M29.2355 39.4265L18.7023 49.8058L22.7806 53.8246L33.3138 43.4452L29.2355 39.4265Z" fill="#F13C6E"/>
<path d="M22.7576 25.0025L18.6793 29.0213L29.2124 39.4007L33.2907 35.3819L22.7576 25.0025Z" fill="#F13C6E"/>
<path d="M29.454 18.426L25.3757 22.4448L35.9089 32.8241L39.9872 28.8054L29.454 18.426Z" fill="#F13C6E"/>
<path d="M50.7592 39.3973L46.6809 43.416L57.2141 53.7954L61.2924 49.7766L50.7592 39.3973Z" fill="#F13C6E"/>
<path d="M44.092 46.0026L40.0137 50.0214L50.5468 60.4007L54.6251 56.382L44.092 46.0026Z" fill="#F13C6E"/>
<path d="M54.6058 64.4395L50.5394 60.4325L40 70.8181L29.4606 60.4325L25.3942 64.4395L40 78.8321L54.6058 64.4395Z" fill="#EFEFEF"/>
<path d="M18.6722 29.0305L14.6058 25.0234L0 39.416L14.6058 53.8086L18.6722 49.8016L8.13278 39.416L18.6722 29.0305Z" fill="#EFEFEF"/>
<path d="M65.3942 25.0234L61.3278 29.0305L71.8672 39.416L61.3278 49.8016L65.3942 53.8086L80 39.416L65.3942 25.0234Z" fill="#EFEFEF"/>
<path d="M50.5394 18.3996L54.6058 14.3926L40 0L25.3942 14.3926L29.4606 18.3996L40 8.01405L50.5394 18.3996Z" fill="#EFEFEF"/>
</g>
<defs>
<clipPath id="clip0_6_21">
<rect width="80" height="78.8321" fill="white"/>
</clipPath>
</defs>
</svg>
