<svg width="46" height="45" viewBox="0 0 46 45" fill="none" xmlns="http://www.w3.org/2000/svg">
<mask id="path-1-inside-1_34776_3" fill="white">
<path d="M45.5 22.5C45.5 34.9264 35.4264 45 23 45C10.5736 45 0.5 34.9264 0.5 22.5C0.5 10.0736 10.5736 0 23 0C35.4264 0 45.5 10.0736 45.5 22.5Z"/>
</mask>
<path d="M45.5 22.5C45.5 34.9264 35.4264 45 23 45C10.5736 45 0.5 34.9264 0.5 22.5C0.5 10.0736 10.5736 0 23 0C35.4264 0 45.5 10.0736 45.5 22.5Z" fill="white"/>
<path d="M43.5 22.5C43.5 33.8218 34.3218 43 23 43V47C36.531 47 47.5 36.031 47.5 22.5H43.5ZM23 43C11.6782 43 2.5 33.8218 2.5 22.5H-1.5C-1.5 36.031 9.46902 47 23 47V43ZM2.5 22.5C2.5 11.1782 11.6782 2 23 2V-2C9.46902 -2 -1.5 8.96902 -1.5 22.5H2.5ZM23 2C34.3218 2 43.5 11.1782 43.5 22.5H47.5C47.5 8.96902 36.531 -2 23 -2V2Z" fill="#F13C6E" mask="url(#path-1-inside-1_34776_3)"/>
</svg>
